# xmcd CD database file
#
# Track frame offsets:
#	150
#	17312
#	52346
#	66859
#	114121
#	123975
#	127592
#
# Disc length: 1935 seconds
#
# Revision: 0
# Processed by: cddbd v1.5.2PL0 Copyright (c) Steve Scherf et al.
# Submitted via: CDex 1.70beta2
#
DISCID=50078d07
DTITLE=Sun Ra and His Arkestra - Live At Montreux - disc 2
DYEAR=1976
DGENRE=Jazz
TTITLE0=Piano Intro
TTITLE1=Take The 'A' Train
TTITLE2=Prelude
TTITLE3=El Is The Sound Of Joy
TTITLE4=Encore 1
TTITLE5=Encore 2
TTITLE6=We Travel The Spaceways
EXTD=YEAR: 1976
EXTT0=
EXTT1=
EXTT2=
EXTT3=
EXTT4=
EXTT5=
EXTT6=
PLAYORDER=
